PathFileType	4	(X/Y/Z)	 s10c0101.trc
DataRate	CameraRate	NumFrames	NumMarkers	Units	OrigDataRate	OrigDataStartFrame	OrigNumFrames
200	200	7	49	mm	200	501	2000
Frame#	Time	racr			lacr			c7			jug			rlel			rdr			llel			ldr			s2			lic			ric			lasi			rasi			rpsi			lpsi			rgt			lgt			rth1			rth2			rth3			rth4			rlfc			rmfc			rsh1			rsh2			rsh3			rsh4			rlmal			rmmal			rcal			rtoe			rmt5			lth1			lth2			lth4			lth3			llfc			lmfc			llmal			lcal			lmt5			lsh1			lsh2			lsh3			lsh4			ltoe			SBIKE			LBIKE			RBIKE			
		X1	Y1	Z1	X2	Y2	Z2	X3	Y3	Z3	X4	Y4	Z4	X5	Y5	Z5	X6	Y6	Z6	X7	Y7	Z7	X8	Y8	Z8	X9	Y9	Z9	X10	Y10	Z10	X11	Y11	Z11	X12	Y12	Z12	X13	Y13	Z13	X14	Y14	Z14	X15	Y15	Z15	X16	Y16	Z16	X17	Y17	Z17	X18	Y18	Z18	X19	Y19	Z19	X20	Y20	Z20	X21	Y21	Z21	X22	Y22	Z22	X23	Y23	Z23	X24	Y24	Z24	X25	Y25	Z25	X26	Y26	Z26	X27	Y27	Z27	X28	Y28	Z28	X29	Y29	Z29	X30	Y30	Z30	X31	Y31	Z31	X32	Y32	Z32	X33	Y33	Z33	X34	Y34	Z34	X35	Y35	Z35	X36	Y36	Z36	X37	Y37	Z37	X38	Y38	Z38	X39	Y39	Z39	X40	Y40	Z40	X41	Y41	Z41	X42	Y42	Z42	X43	Y43	Z43	X44	Y44	Z44	X45	Y45	Z45	X46	Y46	Z46	X47	Y47	Z47	X48	Y48	Z48	X49	Y49	Z49	
501	2.5050	433.518712	1276.391903	-106.718190	385.175059	1275.403172	-418.065065	369.074358	1337.483329	-250.472239	373.517160	1185.898171	-244.465316	489.667003	1042.033496	14.773710	641.029189	876.382996	-5.464988	443.346457	995.937020	-450.431608	647.452925	897.147731	-376.393075	-137.071505	1109.606902	-205.074298	26.930409	1134.493301	-363.288943	46.220463	1131.359196	-65.262853	52.436299	1043.372300	-332.005587	37.303597	1053.123525	-71.013615	-97.218444	1174.188682	-146.459204	-95.981064	1180.060480	-257.835170	-71.877795	1017.139526	-18.692211	-53.125932	1001.434640	-398.050953	24.872485	906.707319	7.291624	101.559000	862.129342	-3.175521	143.146553	787.612092	-4.906582	126.001475	889.035031	-11.848325	207.752553	705.103644	-13.588350	204.506875	695.952781	-131.816599	115.156183	629.297918	1.897516	83.072933	548.834276	-19.063047	16.359844	495.821551	-33.391803	111.300445	534.270703	-40.822102	-48.080824	413.897966	-58.926304	-9.716901	419.161018	-133.050654	-95.374899	425.024161	-112.931223	90.920412	267.213393	-93.625820	4.925585	295.676261	-39.471620	49.073589	912.267269	-406.321182	130.577265	887.975519	-388.218914	148.023153	918.977159	-379.402833	190.576817	823.532050	-376.607091	284.330417	764.601335	-350.451262	273.991052	755.157533	-234.346411	205.152912	390.193007	-363.221632	158.149998	339.206013	-324.436691	337.927695	343.248928	-385.964667	243.419244	646.516540	-385.489003	258.491365	561.377197	-372.649833	227.841931	477.903093	-373.348320	285.428771	561.676970	-345.859930	405.953818	397.113677	-328.086532	-204.642276	834.767127	-224.231637	-78.280872	81.577890	-423.467573	-102.739670	80.391844	-24.252689	
502	2.5100	434.365829	1276.331871	-106.662080	386.526950	1275.642039	-418.454993	370.251434	1337.735894	-250.683745	374.627133	1186.176682	-244.717054	489.715540	1041.857649	15.011622	641.002386	876.351409	-5.459256	443.417313	995.704618	-450.801329	647.557823	896.987828	-376.006300	-135.855261	1110.528023	-204.509066	28.327455	1134.126936	-363.574363	47.341227	1132.100249	-65.545963	53.516378	1042.939066	-331.939359	37.996100	1053.979183	-71.139835	-96.160529	1175.027605	-147.035322	-93.829670	1179.193081	-259.872227	-71.290353	1018.618201	-18.648166	-51.901417	1001.212277	-398.031654	25.693028	908.177064	7.620703	102.682532	864.006033	-2.678020	144.777581	789.829138	-4.083285	127.006095	891.105205	-11.397503	209.854963	707.526625	-12.713733	206.514449	698.558550	-130.962642	116.528519	632.167907	2.594236	83.795358	552.140382	-18.531095	16.569733	499.898002	-33.307730	111.932805	537.473960	-40.290601	-48.511419	418.508017	-58.921455	-10.015993	423.420112	-133.129322	-95.835943	429.742859	-112.958629	90.277782	271.687123	-93.690234	4.325240	300.261338	-39.493051	49.340176	911.090061	-406.274355	130.557045	885.949945	-388.191069	148.351685	916.702518	-379.374957	189.781977	820.802884	-376.514344	282.769322	761.176362	-350.402596	272.791614	751.925285	-234.574585	206.029788	386.355099	-363.016182	159.097784	335.665107	-324.185146	338.842106	338.584033	-385.795557	242.312868	643.175885	-385.799525	258.107951	558.051299	-372.626810	228.159926	474.318334	-373.334980	285.082282	558.397567	-345.810839	407.272138	392.145694	-327.998390	-204.608030	834.783333	-224.246516	-78.243804	81.601176	-423.529616	-102.721350	80.393262	-24.238126	
503	2.5150	435.168332	1276.405565	-106.562463	388.035053	1275.955578	-418.716191	371.470148	1338.051325	-250.864401	375.803929	1186.541479	-245.006379	489.722939	1041.657166	15.233689	640.980090	876.343555	-5.487654	443.718994	995.512010	-451.138470	647.651032	896.883220	-375.950944	-134.788024	1111.133998	-204.874263	29.694061	1133.934779	-363.980399	48.473843	1132.888246	-66.130728	54.796171	1042.629009	-332.140205	38.743110	1054.818409	-71.384317	-95.067381	1175.875512	-147.633216	-93.356489	1180.577681	-259.331665	-70.476040	1020.122188	-18.727528	-50.653354	1000.956012	-397.967763	26.675944	909.731586	7.996488	103.968951	865.953952	-2.227849	146.606317	792.110757	-3.290358	128.092448	893.263244	-11.046179	212.094524	709.948819	-11.849118	208.836632	701.252056	-130.248981	118.122240	635.271793	3.285341	84.697631	555.517347	-18.097136	17.155267	504.162232	-32.503553	112.695449	540.727010	-39.905866	-48.799160	423.195244	-58.918562	-10.141299	427.981973	-133.112603	-96.121370	434.475317	-112.906642	89.687685	276.173161	-93.768628	3.832515	304.903850	-39.570668	49.563791	910.013520	-406.373750	130.474256	883.867684	-388.163082	148.626129	914.368712	-379.386957	188.916931	818.017965	-376.418125	281.115719	757.899158	-350.586197	271.571369	748.759756	-234.825105	206.844833	382.636711	-363.150033	159.766056	332.434235	-324.495707	339.703688	334.055225	-385.792956	241.241749	639.566434	-385.845056	257.706787	554.519749	-372.703630	228.393350	470.656319	-373.427768	284.690950	555.340358	-345.926765	408.458847	387.080274	-327.940279	-204.421609	834.488779	-223.899597	-78.238554	81.604742	-423.508756	-102.720990	80.386818	-24.233513	
504	2.5200	435.941672	1276.478765	-106.259786	389.706215	1276.362379	-418.879917	372.817606	1338.210885	-251.220712	376.940457	1186.952844	-245.194136	489.712843	1041.458121	15.438990	640.971649	876.336459	-5.472416	444.159660	995.560153	-451.580436	647.767387	896.762811	-375.909135	-133.645773	1112.158447	-205.413619	31.031335	1133.830800	-364.417844	49.533559	1133.674043	-66.759246	56.014544	1042.361342	-332.255652	39.523438	1055.720383	-71.643374	-94.021594	1176.570045	-148.384057	-91.874585	1180.619947	-260.224448	-69.594409	1021.655453	-18.818240	-49.419515	1000.717355	-397.926392	27.844510	911.422206	8.299331	105.398443	868.069118	-1.806624	148.511971	794.458074	-2.604737	129.326848	895.450473	-10.820298	214.401703	712.467322	-11.048819	211.343025	703.312600	-129.355714	119.841429	638.267142	4.010613	85.829439	558.980708	-17.606493	17.831314	508.063839	-32.306704	113.629523	543.997611	-39.524613	-49.011804	427.952023	-58.930982	-10.131949	432.559089	-133.070514	-96.325552	439.315697	-112.935790	89.235389	280.743672	-93.827070	3.424691	309.599906	-39.596736	49.766484	908.863571	-406.361688	130.335657	881.769648	-388.180190	148.862917	912.126465	-379.397758	187.941031	815.238121	-376.290390	279.384489	754.438622	-350.738570	270.691174	745.814642	-234.848004	207.512963	378.800061	-362.928713	160.564067	328.957401	-324.159812	340.385146	329.447663	-385.723880	240.048677	636.062091	-386.089281	257.229693	551.255226	-372.827163	228.546232	467.060844	-373.445218	284.204349	552.077426	-346.002166	409.500752	382.042227	-327.923011	-204.420870	834.474832	-223.905387	-78.247679	81.578274	-423.486386	-102.712017	80.389682	-24.223746	
505	2.5250	436.664662	1276.666138	-105.973503	391.497672	1276.849152	-418.949015	374.103587	1338.651612	-251.270446	378.184510	1187.379797	-245.235941	489.679981	1041.288783	15.628873	640.960124	876.343145	-5.508324	444.751346	995.751974	-452.110285	647.892169	896.637695	-375.871608	-132.577989	1112.802199	-205.862407	32.380080	1133.600273	-364.925514	50.551815	1134.607866	-67.493197	57.208223	1042.119173	-332.368855	40.372376	1056.680468	-72.040924	-92.916023	1177.514047	-149.270492	-90.716443	1180.900104	-260.895276	-68.581276	1023.173651	-18.868855	-48.216985	1000.511491	-397.976434	29.092958	913.054334	8.504505	106.909795	870.217002	-1.471922	150.504941	796.929558	-2.010766	130.698237	897.731050	-10.651291	216.657932	715.075813	-10.369778	213.844509	705.742604	-128.597613	121.691071	641.369591	4.641138	86.950490	562.385332	-17.151872	18.464040	512.098767	-32.293617	114.622386	547.239936	-39.267437	-49.056187	432.808053	-58.925740	-10.022557	437.227990	-133.042243	-96.421098	444.136760	-112.921649	88.930102	285.401529	-93.849338	3.099416	314.301993	-39.614121	49.909856	907.901675	-406.472104	130.142237	879.712554	-388.216025	149.071006	909.793147	-379.486299	186.888738	812.462743	-376.228798	277.614118	751.033976	-350.903254	270.191780	743.373098	-234.573627	208.044238	375.039570	-362.796387	161.137730	325.760993	-324.304590	341.010317	324.722980	-385.673304	238.839475	632.548959	-386.223114	256.535760	547.866342	-372.868136	228.554645	463.498123	-373.521934	283.571565	548.997135	-346.169619	410.583742	376.659933	-327.697099	-204.392311	834.538393	-223.971978	-78.252397	81.580625	-423.494714	-102.602916	80.294803	-24.283327	
506	2.5300	437.414938	1276.829204	-105.490967	393.460907	1277.351612	-418.864439	375.408281	1339.111239	-251.318843	379.435475	1187.886079	-245.344211	489.595816	1041.122153	15.831827	640.987758	876.353395	-5.502284	445.573765	996.132020	-452.680939	648.035446	896.526939	-375.836464	-131.395080	1113.654964	-206.477113	33.815276	1133.314994	-365.568735	51.615146	1135.502962	-68.221602	58.489763	1041.741049	-332.531381	41.324369	1057.567364	-72.504742	-91.648135	1178.117297	-150.090170	-89.297631	1181.167357	-261.978291	-67.441070	1024.683379	-18.932785	-47.005257	1000.276169	-398.022607	30.502506	914.883534	8.673764	108.579187	872.488586	-1.239355	152.640930	799.418592	-1.465869	132.133934	900.137007	-10.630319	219.011946	717.743906	-9.655731	216.263209	708.145529	-127.935872	123.646242	644.555029	5.260490	88.339896	565.849026	-16.761235	19.409786	516.166231	-32.048890	115.839727	550.611470	-38.912915	-49.054234	437.560379	-58.891680	-9.850232	441.973827	-133.035124	-96.432047	449.063463	-112.951310	88.715725	290.027889	-93.845149	2.965695	319.080914	-39.629894	49.998110	906.727550	-406.446344	129.898467	877.596681	-388.257624	149.201468	907.446565	-379.613718	186.447491	810.058902	-376.882690	275.785161	747.683036	-351.165537	267.956050	739.737762	-235.280042	208.520342	371.475394	-362.937378	161.577800	322.514684	-324.557233	341.539064	320.032381	-385.604769	237.514582	629.078453	-386.544072	255.889637	544.491045	-373.168360	228.476351	459.852663	-373.579456	282.847888	545.975560	-346.748151	411.357688	371.457218	-327.616284	-204.372793	834.528587	-223.977308	-78.264837	81.561476	-423.476644	-102.719374	80.388017	-24.232030	
507	2.5350	438.098807	1277.070837	-105.045477	395.584383	1278.010586	-418.693454	376.758346	1339.647299	-251.273710	380.693001	1188.411351	-245.273290	489.500104	1041.051642	15.988570	641.002556	876.323054	-5.533411	446.485372	996.576143	-453.204163	648.175269	896.391551	-375.823093	-130.208768	1114.443380	-207.108939	35.086608	1133.166537	-366.205269	52.777566	1136.566565	-68.913312	59.944102	1041.660879	-333.020523	42.331262	1058.636957	-73.021226	-90.523671	1178.984560	-150.893226	-87.844691	1181.296987	-262.790860	-66.256315	1026.294277	-19.025498	-45.821467	1000.022378	-398.064340	32.116368	916.805495	8.864588	110.341264	874.803562	-1.094862	154.857359	802.065343	-0.966653	133.639898	902.537908	-10.710840	221.399364	720.477676	-9.118099	219.074349	710.712138	-127.343916	125.793115	647.603117	5.873571	89.793387	569.303999	-16.384180	20.216942	520.317735	-32.003182	117.117562	554.116877	-38.710162	-48.820069	442.372378	-58.859003	-9.602795	446.793188	-133.019510	-96.326259	453.940192	-112.910632	88.681048	294.653518	-93.868216	2.965116	323.736664	-39.640997	50.053010	905.721706	-406.568735	129.590400	875.625293	-388.396330	149.290883	905.245624	-379.760423	185.220407	807.317832	-376.814312	273.837996	744.153756	-351.287097	266.315715	736.473574	-235.673811	208.855513	367.811399	-363.013052	162.034815	319.161001	-324.294712	341.884980	315.437326	-385.554999	236.109123	625.567267	-386.670068	255.037346	541.147694	-373.302559	228.836280	456.675763	-374.198971	282.036923	542.795082	-347.056222	412.135760	366.130515	-327.512024	-204.413170	834.514007	-224.308717	-78.264369	81.580788	-423.513308	-102.727257	80.384549	-24.251035	
